<?xml version="1.0" encoding="utf-8"?>
<!-- Generator: Adobe Illustrator 16.0.0, SVG Export Plug-In . SVG Version: 6.00 Build 0)  -->
<!DOCTYPE svg PUBLIC "-//W3C//DTD SVG 1.1//EN" "http://www.w3.org/Graphics/SVG/1.1/DTD/svg11.dtd">
<svg version="1.1"
	 id="Layer_1" xmlns:rdf="http://www.w3.org/1999/02/22-rdf-syntax-ns#" xmlns:cc="http://creativecommons.org/ns#" xmlns:dc="http://purl.org/dc/elements/1.1/"
	 xmlns="http://www.w3.org/2000/svg" xmlns:xlink="http://www.w3.org/1999/xlink" x="0px" y="0px" width="1984.252px"
	 height="1984.252px" viewBox="24.874 -836.588 1984.252 1984.252" enable-background="new 24.874 -836.588 1984.252 1984.252"
	 xml:space="preserve">
<g transform="translate(-59.665,-135.05102)">
	<g>
		<path fill="#414F4F" d="M1127.214-78.918c0,0,169.601,69.441,262.064-22.413c0,0,58.211-63.518,86.024-63.122
			c0,0,38.272-4.818,16.476,43.465c0,0-10.661,18.952-14.771,25.26c0,0,74.216,12.787,29.986,82.872
			c0,0-50.699,53.905-105.132,63.854c0,0,1.597,107.117-92.668,82.467c-15.403-4.029-42.668-16.026-56.557-29.292
			c0,0-20.425,41.135-77.595,31.741c-28.422-4.67-80.114-23.258-94.891-65.362c-14.781-42.104,12.021-112.1,12.021-112.1
			l35.046-37.371H1127.214z"/>
		<path fill="#FFE448" d="M801.727,184.555c0,0,3.154,61.041-6.589,86.37c-9.746,25.334,10.857,37.691,17.031,27.726
			c6.176-9.965,8.942-15.958,8.942-15.958s0.251,29.492,13,28.337c12.753-1.165,17.615-13.156,18.513-29.232
			c0,0,4.357,11.792,12.458,7.636c8.103-4.157,10.468-29.008,6.589-39.118c-3.879-10.111-20.746-43.529-28.661-52.442
			C835.095,188.968,801.727,184.555,801.727,184.555L801.727,184.555z"/>
		<path fill="#FFE448" d="M903.909,182.149c0,0,26.749,28.027,30.363,74.333c0,0,2.711,21.403,14.309,18.802
			c0,0,8.774,1.631,10.209-10.911c0,0,6.943,24.225,19.313,20.632c12.366-3.593,12.815-17.412,12.381-22.444
			c0,0,1.676,6.057,7.469,5.133c5.796-0.924,9.906-7.149,6.882-24.286c-3.025-17.136-20.408-55.593-49.363-66.811
			c-28.953-11.218-51.547,4.545-51.547,4.545"/>
		<path fill="#FF3939" d="M1036.776-632.263c0,0-86.838,44.008-69.105,154.963C967.668-477.299,1053.581-506.121,1036.776-632.263
			L1036.776-632.263z"/>
		<path fill="#FFE448" d="M800.993-543.719c0,0,17.474,96.87,175.679,74.394C976.672-469.325,881.357-554.137,800.993-543.719z"/>
		<path fill="#1BBEBF" d="M884.383-652.846c0,0-48.99,108.214,83.228,175.561C967.608-477.285,977.628-595.133,884.383-652.846z"/>
		<path fill="#FFE448" d="M1116.204-463.426l40.172,156.975c28.543,24.384,71.951,35.82,119.789,40.213l-56.085-231.863
			c-59.08,19.426-103.852,34.682-103.852,34.682L1116.204-463.426z"/>
		<path fill="#FF3939" d="M1906.802-382.296c23.456-70.257,13.749-120.925,13.749-120.925
			c-39.177-142.027-171.861-124.579-242.434-117.97l44.104,201.268c142.974-38.939,184.578,37.63,184.578,37.63L1906.802-382.296z"
			/>
		<path fill="#FFE448" d="M1161.863-285.957c0,0-59.681,8.616-24.393,39.996c16.734,14.88,47.121,42.458,129.646,62.6
			c10.477,2.558,20.663,4.608,30.626,6.303l-11.505-47.52C1207.567-242.786,1161.863-285.957,1161.863-285.957L1161.863-285.957z"/>
		<path fill="#FF3939" d="M1286.362-224.573l11.5,47.521c31.349,5.304,60.241,6.495,86.748,4.542l-10.702-44.63
			C1341.487-215.337,1312.152-218.603,1286.362-224.573L1286.362-224.573z"/>
		<path fill="#FF3939" d="M1220.147-498.104l56.109,231.88c22.563,2.079,46.166,2.536,69.812,1.885
			c5.686-0.153,11.077-0.446,16.315-0.783l-62.356-258.585c-28.976,9.204-55.848,17.723-79.88,25.614V-498.104z"/>
		<path fill="#FFE448" d="M1300.017-523.723l62.355,258.584c49.732-3.277,79.817-14.449,104.382-27.765l-67.062-261.844
			c-34.033,10.21-68.065,20.987-99.676,31.017V-523.723z"/>
		<path fill="#FFE448" d="M1692.746-410.705c10.276-3.614,20.096-6.663,29.486-9.217l-44.107-201.268
			c-2.251,0.212-4.66,0.397-6.776,0.584c-36.652,3.163-94.528,16.574-159.147,33.909l58.26,234.934
			c62.364-32.274,122.278-58.943,122.278-58.943L1692.746-410.705z"/>
		<path fill="#FFE448" d="M1373.865-217.144l10.697,44.63c41.052-3.017,76.356-13.566,106.402-27.812l-10.333-40.105
			C1442.227-225.909,1406.477-218.945,1373.865-217.144L1373.865-217.144z"/>
		<path fill="#FFE448" d="M1628.44-328.606c-14.949,12.203-29.646,23.197-44.086,33.087l5.173,21.005
			C1616.081-304.129,1628.44-328.606,1628.44-328.606z"/>
		<path fill="#1BBEBF" d="M1570.448-351.758l-58.286-234.933c-36.302,9.748-74.425,20.531-112.505,31.955l67.063,261.844
			c7.909-4.289,75.305-44.168,103.704-58.866H1570.448z"/>
		<path fill="#1BBEBF" d="M1490.727-200.025c43.682-20.708,76.462-49.539,98.823-74.486l-5.173-21.006
			c-36.313,24.874-71.268,43.014-103.98,55.387L1490.727-200.025L1490.727-200.025z"/>
		<path fill="#1BBEBF" d="M331.773-256.417c0,0-4.893,174.988,211.999,193.65C543.775-62.767,500.812-214.311,331.773-256.417z"/>
		<path fill="#FFE448" d="M306.477,156.485c-2.331,0.568,29.579-176.442,237.532-219.252
			C544.008-62.767,557.607,94.485,306.477,156.485z"/>
		<path fill="#FF3939" d="M242.803-19.238c0,0,114.687-142.338,301.396-43.291C544.2-62.532,423.656,38.675,242.803-19.238
			L242.803-19.238z"/>
		<path fill="#2B2B2B" d="M1091.246-150.373c7.093-74.483-20.538-94.946-41.56-117.646
			c-115.352-124.558,28.766-185.089,70.01-196.569c-34.918-46.878-146.523-47.981-188.351,23.918
			c-30.99,53.276-45.694,223.936-45.694,223.936L544.175-62.784c58.74,324.886,322.493,278.096,322.493,278.096
			c130.217-27.551,207.066-102.236,250.067-192.635c-82.266-33.304-29.576-130.111-25.489-173.064V-150.373z"/>
		<path fill="#FFFFFF" d="M1120.755-462.751c-0.409-0.596-0.838-1.176-1.269-1.755c-41.241,11.471-185.368,72.006-70.009,196.57
			c21.022,22.698,48.651,43.163,41.557,117.646c-4.087,42.947-56.774,139.755,25.493,173.064
			c89.562-188.288,32.243-444.746,4.228-485.516V-462.751z"/>
		<path fill="#414F4F" d="M815.968-71.445c0,0,110.001-64.29,133.356-45.358c23.36,18.931,15.435,45.943,13.226,59.997
			c-2.212,14.057-36.614,100.034-89.493,142.009c-52.877,41.978-74.366,33.126-91.134,10.265c0,0-10.543-18.498-11.827-34.35
			c0,0-54.046,53.271-83.077,9.125c0,0-14.774-21.576-9.677-44.126c0,0-69.442,4.794-73.073-57.844c0,0,0.463-26.806,12.9-29.309
			c0,0,5.133-1.603,12.326,5.035c7.194,6.636,25.329,21.725,61.815,18.975C727.795-39.773,802.915-64.132,815.968-71.445
			L815.968-71.445z"/>
		<path fill="#2B2B2B" d="M1037.218-363.709c1.741-11.664,4.493-24.255,26.164-27.968c21.668-3.714,35.441,17.595,35.156,37.699
			c-0.286,20.104-4.487,58.25-18.054,62.581c-13.563,4.332-33.117,0.532-39.236-28.71
			C1035.13-349.35,1035.83-354.411,1037.218-363.709L1037.218-363.709z"/>
		<circle fill="#FFFFFF" cx="1064.672" cy="-371.96" r="7.957"/>
		<path fill="#D0CCBF" d="M1151.291-70.653l-2.431-0.746c5.949-24.976,15.505-114.885,15.864-153.113l2.888,1.88
			c-0.558,40.647-9.613,124.924-16.321,151.982V-70.653z"/>
	</g>
	<g>
		<path fill="#FF3939" d="M624.859,560.331c-30.936,30.281-65.492,35.15-65.492,35.15c-79.073,13.262-93.857-97.692-96.417-127.963
			l127.545-72.646l-26.576-47.335l-104.07,60.22l-8.693-174.942l-57.085,1.299c1.197,82.095,5.153,157.206,8.355,206.867
			l-66.015,38.204l26.533,45.292l43.728-24.913c0.137,1.634,0.211,2.491,0.211,2.491
			c56.622,265.935,245.493,102.527,245.493,102.527l-27.523-44.251L624.859,560.331z"/>
		<path fill="#FF3939" d="M850.522,392.517c-43.255-27.303-106.713-17.553-131.864,2.147
			c-52.631,41.248-53.57,155.696-13.218,206.796c33.131,41.95,138.066,36.841,167.372-26.655
			c31-67.158,12.545-160.301-22.294-182.289H850.522z M842.223,550.629c-22.906,52.331-90.384,46.561-109.406,17.419
			c-23.261-35.643-23.556-108.571,10.846-135.533c16.437-12.88,55.249-21.569,83.218-3.251
			c23.544,15.413,34.732,77.059,15.342,121.356V550.629z"/>
		<path fill="#FF3939" d="M920.705,406.218l37.57-11.093c0,0,25.66,145.173,45.999,165.242
			c16.172,15.946,34.999,14.866,43.754-4.572c10.665-23.688,13.187-75.994,12.574-164.493l38.876,2.473
			c0,0,8.495,174.431-31.11,204.392c-41.555,31.449-82.162,11.098-97.676-12.057c-26.922-40.186-48.531-160.554-49.988-179.896
			V406.218z"/>
		<path fill="#FF3939" d="M1282.825,341.381l9.606,38.22c0,0-131.471,29.487-127.129,116.083
			c1.804,35.847,10.233,61.306,143.723,56.224l0.88,38.738c0,0-186.107,23.613-183.487-85.577
			c2.612-109.189,85.364-147.792,156.397-163.695L1282.825,341.381z"/>
		<path fill="#FF3939" d="M1523.57,342.69c0,0-92.164-12.549-148.852,50.302c-23.404,25.952-47.041,69.073-37.139,134.317
			c0,0,6.531,89.413,160.468,41.034l2.169,20.658l38.735-0.881l-15.382-245.422V342.69z M1376.755,515.347
			c-6.612-19.897,2.114-74.503,19.014-93.934c34.945-40.17,91.98-36.423,91.98-36.423l7.039,145.006
			c-95.668,23.932-111.753,4.245-118.033-14.652V515.347z"/>
		<path fill="#FF3939" d="M1596.42,346.142l-4.552,233.329l41.456-0.946l3.994-138.115c0,0,39.543-74.813,86.292-32.565
			c7.616,6.885,8.361,8.653,9.748,39.902c1.389,31.243,0.684,134.58,0.684,134.58l38.561-8.67c0,0,14.461-126.461-3.958-173.979
			c0,0-11.036-36.803-46.964-46.87c0,0-44.205-14.969-82.655,13.442l0.262-18.702l-42.867-1.408V346.142z"/>
		<path fill="#1BBEBF" d="M801.053,944.676c0,0,74.854-83.829,30.205-163.039c-9.198-16.312-19.518-33.411-44.221-49.1
			c-13.504-8.576-23.504-13.688-65.006-20.183c-37.59-5.882-115.511-8.965-144.149,1.751l10.974,482.203
			c0,0,140.434,26.996,202.2-27.576c61.771-54.574,88.411-181.868,9.996-224.065L801.053,944.676z M781.472,1093.479
			c-21.767,53.003-135.542,43.123-135.542,43.123l-3.374-148.267c45.167-5.625,87.252-1.988,87.252-1.988
			c63.923,11.018,73.438,54.124,51.669,107.132H781.472z M764.914,899.552c-28.093,24.019-116.305,23.324-123.793,25.792
			l-3.683-161.837c0,0,86.48-7.023,127.198,22.823c40.385,29.601,31.828,86.247,0.279,113.222H764.914z"/>
		<path fill="#1BBEBF" d="M1174.985,790.885c-42.102-134.807-316.058-158.66-296.037,115.26c0,0,6.177,156.088,35.39,199.405
			c29.21,43.311,64.577,68.764,144.116,74.171c79.548,5.41,112.808-61.64,128.9-104.671
			c16.557-44.305,25.146-164.017-12.379-284.156L1174.985,790.885z M1113.762,1100.346c-70.008,63.745-139.601,6.482-155.564-29.278
			c-62.945-141.009-15.217-264.839-15.217-264.839c54.959-93.803,159.838-53.213,180.716,1.532
			c58.438,153.184,10.97,273.549-9.939,292.596L1113.762,1100.346z"/>
		<polygon fill="#1BBEBF" points="1234.501,1127.798 1288.829,1149.531 1358.877,998.729 1439.809,1150.045 1493.886,1126.486 
			1390.137,931.463 1494.694,706.372 1454.009,677.757 1358.901,872.745 1260.593,687.97 1205.339,711.645 1326.752,938.654 		"/>
		<path fill="#1BBEBF" d="M1544.152,1085.967c1.142-0.051,2.269-0.099,3.398-0.139c10.63,0.313,18.625,4.187,24.591,9.677
			c5.968,5.488,10.505,13.112,11.706,23.688c0.049,1.13,0.101,2.258,0.137,3.399c-0.313,10.612-4.187,18.609-9.678,24.588
			c-5.488,5.965-13.122,10.504-23.687,11.696c-1.138,0.049-2.267,0.101-3.396,0.135c-10.626-0.302-18.621-4.173-24.593-9.662
			c-5.964-5.489-10.502-13.137-11.704-23.688c-0.052-1.128-0.103-2.27-0.125-3.396c0.051-0.038,0.073-0.074,0.063-0.175
			c0.176-10.667,4.224-18.487,9.676-24.418C1526.017,1091.708,1533.585,1087.118,1544.152,1085.967L1544.152,1085.967z
			 M1537.086,1091.368c-6.305,2.106-11.143,5.741-14.678,10.042c-4.587,5.552-8.747,13.784-7.493,24.236
			c1.188,10.093,5.463,16.559,11.38,21.685c5.575,4.853,14.263,8.601,24.237,7.495c9.842-1.089,16.847-5.414,21.758-11.303
			c4.765-5.703,8.525-13.636,7.586-24.33c-0.854-9.574-5.854-16.993-11.384-21.666c-5.661-4.803-13.897-8.65-24.338-7.584
			C1541.86,1090.178,1539.229,1090.652,1537.086,1091.368L1537.086,1091.368z"/>
		<path fill="#1BBEBF" d="M1549.425,1128.344c3.037,4.675,6.897,8.458,10.105,12.961c-0.98,1.177-2.169,2.154-3.35,3.147
			c-3.672-4.852-7.378-9.653-10.84-14.729c-1.804,0.286-3.636,0.565-5.563,0.726c0.374,5.352,1.076,10.341,1.553,15.594
			c-1.265,0.251-2.982,0.088-4.212,0.339c-0.5-1.869-0.402-3.862-0.49-5.816c-0.562-13.563-2.278-27.051-3.784-39.769
			c4.162-0.792,8.161-1.831,13.148-1.759c3.633,0.039,7.321,1.291,9.447,2.922c2.938,2.231,5.167,5.651,5.017,10.906
			C1560.23,1120.497,1555.542,1125.649,1549.425,1128.344L1549.425,1128.344z M1551.982,1121.827
			c1.705-1.616,3.608-4.664,4.16-7.319c0.805-3.961-0.724-6.969-2.893-8.799c-0.841-0.717-1.566-1.527-2.671-1.919
			c-3.633-1.276-9.411,0.191-13.214,0.554c0.554,7.382,1.569,14.289,2.059,21.733
			C1544.487,1125.413,1548.925,1124.696,1551.982,1121.827z"/>
	</g>
</g>
</svg>
