<!-- Generator: Adobe Illustrator 15.0.0, SVG Export Plug-In . SVG Version: 6.00 Build 0)  -->
<svg xmlns:rdf="http://www.w3.org/1999/02/22-rdf-syntax-ns#" xmlns="http://www.w3.org/2000/svg" enable-background="new 0 0 2153.374 1085.155" xml:space="preserve" height="815.05" viewBox="0 0 2034.0436 815.05381" width="2034" version="1.1" y="0px" x="0px" xmlns:cc="http://creativecommons.org/ns#" xmlns:dc="http://purl.org/dc/elements/1.1/"><metadata><rdf:RDF><cc:Work rdf:about=""><dc:format>image/svg+xml</dc:format><dc:type rdf:resource="http://purl.org/dc/dcmitype/StillImage"/><dc:title/></cc:Work></rdf:RDF></metadata><g transform="translate(-59.665,-135.05102)"><path fill="#ff3939" d="M301.99,410.2c-25.99,25.44-55.02,29.53-55.02,29.53-66.43,11.14-78.85-82.07-81-107.5l107.15-61.031-22.327-39.767-87.429,50.592-7.303-146.97-47.957,1.091c1.006,68.969,4.329,132.07,7.019,173.79l-55.459,32.096,22.29,38.049,36.736-20.929c0.115,1.373,0.178,2.093,0.178,2.093,47.569,223.41,206.24,86.133,206.24,86.133l-23.123-37.176z"/><path fill="#ff3939" d="m491.57,269.22c-36.338-22.937-89.65-14.746-110.78,1.804-44.215,34.653-45.005,130.8-11.104,173.73,27.834,35.242,115.99,30.95,140.61-22.393,26.042-56.42,10.539-134.67-18.729-153.14zm-6.973,132.83c-19.243,43.963-75.932,39.116-91.911,14.633-19.542-29.942-19.79-91.21,9.111-113.86,13.808-10.821,46.415-18.121,69.912-2.732,19.779,12.948,29.177,64.738,12.888,101.95z"/><path fill="#ff3939" d="m550.53,280.73,31.564-9.319s21.556,121.96,38.644,138.82c13.585,13.396,29.402,12.489,36.757-3.842,8.959-19.898,11.079-63.842,10.563-138.19l32.662,2.077s7.136,146.54-26.136,171.71c-34.912,26.42-69.026,9.323-82.059-10.13-22.617-33.76-40.77-134.88-41.995-151.13z"/><path fill="#ff3939" d="m854.75,226.26,8.07,32.109s-110.45,24.772-106.8,97.521c1.512,30.116,8.596,51.503,120.74,47.233l0.74,32.544s-156.35,19.839-154.15-71.892c2.196-91.73,71.716-124.16,131.39-137.52z"/><path fill="#ff3939" d="m1057,227.36s-77.428-10.542-125.05,42.259c-19.662,21.802-39.52,58.028-31.201,112.84,0,0,5.488,75.116,134.81,34.472l1.821,17.356,32.543-0.74-12.922-206.18zm-123.34,145.05c-5.555-16.715,1.777-62.59,15.975-78.913,29.355-33.747,77.271-30.6,77.271-30.6l5.914,121.82c-80.371,20.105-93.883,3.566-99.16-12.309z"/><path fill="#ff3939" d="m1118.2,230.26-3.824,196.02,34.83-0.794,3.354-116.03s33.221-62.851,72.494-27.358c6.4,5.784,7.024,7.27,8.19,33.521,1.166,26.248,0.574,113.06,0.574,113.06l32.395-7.283s12.15-106.24-3.326-146.16c0,0-9.272-30.919-39.454-39.375,0,0-37.136-12.576-69.438,11.293l0.22-15.712-36.015-1.183z"/><path fill="#1bbebf" d="m365.68,733.09s62.885-70.425,25.375-136.97c-7.727-13.704-16.398-28.069-37.151-41.248-11.345-7.206-19.745-11.5-54.611-16.957-31.58-4.941-97.042-7.53-121.1,1.471l9.218,405.1s117.98,22.68,169.87-23.165c51.894-45.85,74.275-152.79,8.397-188.24zm-16.45,125.01c-18.287,44.529-113.87,36.228-113.87,36.228l-2.834-124.56c37.945-4.725,73.301-1.669,73.301-1.669,53.701,9.256,61.695,45.468,43.407,90.002zm-13.91-162.92c-23.601,20.179-97.709,19.595-104,21.669l-3.094-135.96s72.653-5.901,106.86,19.175c33.928,24.867,26.739,72.456,0.235,95.116z"/><path fill="#1bbebf" d="M679.83,603.89c-35.37-113.25-265.53-133.29-248.71,96.83,0,0,5.19,131.13,29.731,167.52,24.54,36.387,54.251,57.77,121.08,62.313,66.83,4.544,94.772-51.785,108.29-87.936,13.909-37.219,21.126-137.79-10.398-238.72zm-51.433,259.98c-58.816,53.552-117.29,5.446-130.7-24.599-52.879-118.46-12.784-222.49-12.784-222.49,46.182-78.804,134.29-44.704,151.83,1.286,49.094,128.69,9.215,229.81-8.349,245.81z"/><polygon points="729.83,886.93,775.47,905.19,834.32,778.5,902.31,905.62,947.74,885.83,860.58,721.99,948.42,532.89,914.24,508.85,834.34,672.66,751.75,517.43,705.33,537.32,807.33,728.03" fill="#1bbebf"/><path fill="#414f4f" d="m1552,638.88s115.52,47.298,178.5-15.266c0,0,39.65-43.264,58.594-42.994,0,0,26.069-3.281,11.221,29.606,0,0-7.26,12.908-10.061,17.206,0,0,50.551,8.708,20.426,56.445,0,0-34.533,36.716-71.61,43.493,0,0,1.089,72.961-63.118,56.172-10.492-2.745-29.062-10.916-38.523-19.952,0,0-13.912,28.018-52.851,21.619-19.36-3.181-54.568-15.842-64.634-44.52-10.068-28.677,8.188-76.354,8.188-76.354l23.872-25.455z"/><path fill="#ffe448" d="m1330.3,818.34s2.149,41.577-4.488,58.829c-6.638,17.256,7.396,25.672,11.601,18.885,4.206-6.788,6.091-10.869,6.091-10.869s0.171,20.088,8.855,19.3c8.687-0.792,11.998-8.961,12.609-19.909,0,0,2.968,8.031,8.486,5.2,5.519-2.832,7.13-19.758,4.488-26.645-2.642-6.886-14.131-29.649-19.522-35.719-5.392-6.067-28.12-9.072-28.12-9.072z"/><path fill="#ffe448" d="m1399.9,816.7s18.219,19.092,20.681,50.63c0,0,1.846,14.579,9.746,12.808,0,0,5.977,1.112,6.954-7.433,0,0,4.73,16.502,13.155,14.054,8.423-2.448,8.729-11.859,8.434-15.288,0,0,1.141,4.126,5.087,3.496,3.947-0.628,6.747-4.869,4.687-16.54-2.059-11.672-13.9-37.866-33.622-45.507-19.722-7.642-35.111,3.095-35.111,3.095"/><path fill="#ff3939" d="m1490.4,261.98s-59.149,29.975-47.071,105.55c-0.001,0.001,58.517-19.631,47.071-105.55z"/><path fill="#ffe448" d="m1329.8,322.29s11.902,65.981,119.66,50.672c0,0-64.921-57.768-119.66-50.672z"/><path fill="#1bbebf" d="m1386.6,247.96s-33.369,73.708,56.688,119.58c-0.001,0,6.824-80.27-56.688-119.58z"/><path fill="#ffe448" d="m1544.5,376.98,27.363,106.92c19.441,16.609,49.008,24.398,81.591,27.391l-38.2-157.93c-40.241,13.232-70.736,23.623-70.736,23.623z"/><path fill="#ff3939" d="m2083,432.24c15.977-47.854,9.366-82.366,9.366-82.366-26.684-96.739-117.06-84.855-165.13-80.353l30.043,137.09c97.382-26.523,125.72,25.631,125.72,25.631z"/><path fill="#ffe448" d="m1575.6,497.86s-40.651,5.868-16.615,27.241c11.399,10.136,32.097,28.921,88.307,42.64,7.136,1.741,14.074,3.139,20.86,4.292l-7.836-32.367c-53.585-12.401-84.716-41.806-84.716-41.806z"/><path fill="#ff3939" d="m1660.4,539.67,7.833,32.367c21.355,3.613,41.034,4.425,59.088,3.094l-7.289-30.399c-22.084,1.228-42.066-0.996-59.632-5.062z"/><path fill="#ff3939" d="m1615.3,353.36,38.218,157.94c15.368,1.416,31.445,1.728,47.55,1.285,3.873-0.105,7.545-0.304,11.114-0.534l-42.474-176.13c-19.736,6.27-38.04,12.072-54.408,17.447z"/><path fill="#ffe448" d="m1669.7,335.91,42.474,176.13c33.873-2.233,54.365-9.842,71.097-18.912l-45.679-178.35c-23.18,6.955-46.36,14.295-67.892,21.127z"/><path fill="#ffe448" d="m1937.2,412.89c7.001-2.462,13.688-4.538,20.085-6.278l-30.043-137.09c-1.532,0.145-3.175,0.271-4.616,0.398-24.965,2.154-64.385,11.289-108.4,23.097l39.683,160.02c42.478-21.983,83.287-40.148,83.287-40.148z"/><path fill="#ffe448" d="m1720,544.73,7.289,30.399c27.96-2.054,52.008-9.241,72.474-18.944l-7.04-27.316c-26.159,9.891-50.509,14.634-72.723,15.861z"/><path fill="#ffe448" d="m1893.4,468.81c-10.182,8.312-20.192,15.8-30.027,22.537l3.523,14.308c18.086-20.173,26.504-36.845,26.504-36.845z"/><path fill="#1bbebf" d="M1853.9,453.04,1814.2,293.02c-24.726,6.64-50.694,13.984-76.631,21.766l45.679,178.35c5.386-2.921,51.291-30.084,70.635-40.096z"/><path fill="#1bbebf" d="m1799.6,556.39c29.753-14.104,52.08-33.742,67.31-50.734l-3.523-14.308c-24.735,16.941-48.541,29.298-70.824,37.726l7.037,27.316z"/><path fill="#1bbebf" d="m1010.2,517.98s-3.332,119.19,144.4,131.9c0.001,0-29.262-103.22-144.4-131.9z"/><path fill="#ffe448" d="m992.97,799.22c-1.588,0.386,20.147-120.18,161.79-149.34,0,0,9.263,107.11-161.79,149.34z"/><path fill="#ff3939" d="m949.6,679.53s78.117-96.952,205.29-29.488c0-0.001-82.106,68.935-205.29,29.488z"/><path fill="#2b2b2b" d="m1527.5,590.21c4.832-50.733-13.988-64.671-28.307-80.132-78.57-84.84,19.594-126.07,47.685-133.89-23.782-31.93-99.8-32.681-128.29,16.292-21.109,36.288-31.124,152.53-31.124,152.53l-232.59,104.86c40.009,221.29,219.66,189.42,219.66,189.42,88.695-18.767,141.04-69.637,170.33-131.21-56.036-22.684-20.147-88.623-17.363-117.88z"/><path fill="#ffffff" d="m1547.6,377.44c-0.278-0.406-0.57-0.801-0.864-1.196-28.091,7.814-126.26,49.046-47.685,133.89,14.318,15.461,33.138,29.4,28.307,80.132-2.785,29.252-38.672,95.192,17.363,117.88,61.003-128.25,21.963-302.93,2.879-330.7z"/><path fill="#414f4f" d="m1340,643.97s74.925-43.79,90.834-30.895c15.91,12.896,10.513,31.294,9.008,40.867-1.507,9.574-24.939,68.135-60.956,96.727-36.017,28.591-50.654,22.562-62.075,6.992,0,0-7.182-12.6-8.056-23.398,0,0-36.812,36.285-56.586,6.215,0,0-10.063-14.696-6.591-30.055,0,0-47.299,3.265-49.773-39.4,0,0,0.316-18.257,8.787-19.963,0,0,3.496-1.092,8.396,3.43,4.9,4.521,17.252,14.797,42.104,12.925,24.851-1.872,76.017-18.463,84.908-23.445z"/><path fill="#2b2b2b" d="m1490.7,444.9c1.186-7.944,3.062-16.521,17.821-19.05s24.141,11.985,23.946,25.679c-0.195,13.693-3.056,39.675-12.296,42.625-9.239,2.951-22.558,0.363-26.726-19.555-4.166-19.918-3.69-23.365-2.745-29.699z"/><circle d="m 1514.8,439.27701 c 0,2.99338 -2.4266,5.42 -5.42,5.42 -2.9934,0 -5.42,-2.42662 -5.42,-5.42 0,-2.99339 2.4266,-5.42 5.42,-5.42 2.9934,0 5.42,2.42661 5.42,5.42 z" cy="439.28" cx="1509.4" r="5.42" fill="#ffffff"/><path fill="#d0ccbf" d="m1568.4,644.51-1.657-0.508c4.053-17.013,10.562-78.251,10.806-104.29l1.968,1.28c-0.38,27.685-6.548,85.09-11.117,103.52z"/><path d="m989.97,851.79c0.959-0.043,1.906-0.084,2.854-0.117,8.93,0.263,15.647,3.517,20.659,8.128,5.013,4.611,8.825,11.016,9.835,19.901,0.041,0.95,0.084,1.896,0.115,2.855-0.264,8.917-3.518,15.636-8.131,20.658-4.611,5.011-11.023,8.824-19.898,9.826-0.958,0.041-1.906,0.083-2.854,0.114-8.929-0.254-15.646-3.507-20.66-8.118-5.011-4.612-8.823-11.035-9.833-19.901-0.043-0.948-0.087-1.906-0.105-2.854,0.043-0.03,0.062-0.062,0.052-0.146,0.148-8.962,3.549-15.531,8.129-20.514,4.599-5.011,10.96-8.866,19.837-9.832zm-5.938,4.537c-5.296,1.769-9.36,4.822-12.331,8.435-3.853,4.664-7.348,11.581-6.294,20.363,0.998,8.478,4.589,13.91,9.56,18.217,4.684,4.076,11.982,7.224,20.363,6.297,8.266-0.916,14.152-4.549,18.279-9.497,4.002-4.791,7.161-11.456,6.371-20.439-0.717-8.043-4.917-14.277-9.562-18.203-4.757-4.035-11.676-7.267-20.447-6.371-1.927,0.197-4.139,0.597-5.939,1.198z" fill-rule="evenodd" clip-rule="evenodd" fill="#1bbebf"/><path d="m994.4,887.39c2.55,3.927,5.792,7.106,8.487,10.889-0.821,0.989-1.822,1.81-2.811,2.644-3.086-4.076-6.201-8.109-9.109-12.373-1.516,0.241-3.055,0.474-4.674,0.61,0.316,4.496,0.904,8.687,1.305,13.099-1.062,0.211-2.505,0.074-3.539,0.285-0.419-1.57-0.337-3.244-0.409-4.887-0.474-11.394-1.917-22.724-3.18-33.409,3.496-0.665,6.854-1.539,11.045-1.477,3.053,0.033,6.15,1.086,7.938,2.454,2.465,1.876,4.339,4.749,4.213,9.162-0.189,6.411-4.128,10.739-9.266,13.003zm2.147-5.475c1.432-1.357,3.033-3.917,3.496-6.148,0.675-3.328-0.608-5.856-2.431-7.393-0.706-0.602-1.317-1.284-2.243-1.612-3.053-1.072-7.908,0.16-11.1,0.465,0.465,6.201,1.316,12.004,1.727,18.258,4.255-0.559,7.983-1.159,10.551-3.57z" fill-rule="evenodd" clip-rule="evenodd" fill="#1bbebf"/></g></svg>
